# Made in Blockbench 4.12.0
mtllib flower_button_base.mtl

o base
v 0.216506 0.1875 0.375
v 0.433013 0.1875 0
v 0.433013 0.19375 0
v 0.216506 0.19375 0.375
v 0.156555 0.1875 0.271161
v 0.313109 0.1875 0
v 0 0.1875 0
v 0.216506 0.1875 -0.375
v 0.216506 0.19375 -0.375
v 0.156555 0.1875 -0.271161
v -0.216506 0.1875 -0.375
v -0.216506 0.19375 -0.375
v -0.156555 0.1875 -0.271161
v -0.433013 0.1875 0
v -0.433013 0.19375 0
v -0.313109 0.1875 0
v -0.216506 0.1875 0.375
v -0.216506 0.19375 0.375
v -0.156555 0.1875 0.271161
v 0.49375 0.1875 0.49375
v 0.5 0.18125 0.5
v 0.5 0.18125 -0.5
v 0.49375 0.1875 -0.49375
v -0.49375 0.1875 -0.49375
v -0.5 0.18125 -0.5
v -0.5 0.18125 0.5
v -0.49375 0.1875 0.49375
v -0.391876 0.19375 0
v -0.195938 0.19375 -0.339375
v -0.195938 0.19375 0.339375
v 0.195938 0.19375 0.339375
v 0.391876 0.19375 0
v 0.195938 0.19375 -0.339375
v -0.391876 0.1875 0
v -0.195938 0.1875 -0.339375
v -0.195938 0.1875 0.339375
v 0.195938 0.1875 0.339375
v 0.391876 0.1875 0
v 0.195938 0.1875 -0.339375
v -0.333095 0.1875 0
v -0.166548 0.1875 -0.288469
v -0.166548 0.1875 0.288469
v 0.166548 0.1875 0.288469
v 0.333095 0.1875 0
v 0.166548 0.1875 -0.288469
v -0.313109 0.19375 0
v -0.156555 0.19375 -0.271161
v -0.166548 0.19375 -0.288469
v -0.333095 0.19375 0
v -0.156555 0.19375 0.271161
v -0.166548 0.19375 0.288469
v 0.156555 0.19375 0.271161
v 0.166548 0.19375 0.288469
v 0.313109 0.19375 0
v 0.333095 0.19375 0
v 0.156555 0.19375 -0.271161
v 0.166548 0.19375 -0.288469
v 0.5 -0.0625 -0.5
v 0.5 -0.0625 0.5
v -0.5 -0.0625 0.5
v -0.5 -0.0625 -0.5
vt 0.158983 0.269745
vt 0.158983 0.360529
vt 0.15747 0.360529
vt 0.15747 0.269745
vt 0.177929 0.532289
vt 0.243574 0.570189
vt 0.177929 0.60809
vt 0.158983 0.360529
vt 0.158983 0.4513130000000001
vt 0.15747 0.4513130000000001
vt 0.15747 0.360529
vt 0.243574 0.570189
vt 0.243574 0.64599
vt 0.177929 0.60809
vt 0.346147 0.841586
vt 0.346147 0.736758
vt 0.34766 0.736758
vt 0.34766 0.841586
vt 0.243574 0.64599
vt 0.177929 0.683891
vt 0.177929 0.60809
vt 0.179437 0.4513130000000001
vt 0.179437 0.360529
vt 0.18095 0.360529
vt 0.18095 0.4513130000000001
vt 0.177929 0.683891
vt 0.112283 0.64599
vt 0.177929 0.60809
vt 0.179437 0.360529
vt 0.179437 0.269745
vt 0.18095 0.269745
vt 0.18095 0.360529
vt 0.112283 0.64599
vt 0.112283 0.570189
vt 0.177929 0.60809
vt 0.368114 0.841586
vt 0.368114 0.736758
vt 0.369627 0.736758
vt 0.369627 0.841586
vt 0.112283 0.570189
vt 0.177929 0.532289
vt 0.177929 0.60809
vt 0.508134 0.011739999999999973
vt 0.510274 0.010226999999999986
vt 0.510274 0.252317
vt 0.508134 0.250804
vt 0.09183 0.510322
vt 0.08969 0.511835
vt 0.08969 0.269745
vt 0.09183 0.271258
vt 0.114423 0.510322
vt 0.112283 0.511835
vt 0.112283 0.269745
vt 0.114423 0.271258
vt 0.134877 0.271258
vt 0.137017 0.269745
vt 0.137017 0.511835
vt 0.134877 0.510322
vt 0.077345 0.22054299999999993
vt 0.182173 0.22054299999999993
vt 0.249291 0.24929100000000004
vt 0.010227 0.24929100000000004
vt 0.249291 0.010226999999999986
vt 0.182173 0.03897499999999998
vt 0.077345 0.03897499999999998
vt 0.010227 0.010226999999999986
vt 0.234587 0.12975899999999996
vt 0.182173 0.03897499999999998
vt 0.249291 0.010226999999999986
vt 0.182173 0.22054299999999993
vt 0.234587 0.12975899999999996
vt 0.249291 0.24929100000000004
vt 0.234587 0.12975899999999996
vt 0.249291 0.010226999999999986
vt 0.249291 0.24929100000000004
vt 0.024931 0.12975899999999996
vt 0.077345 0.22054299999999993
vt 0.010227 0.24929100000000004
vt 0.077345 0.03897499999999998
vt 0.024931 0.12975899999999996
vt 0.010227 0.010226999999999986
vt 0.024931 0.12975899999999996
vt 0.010227 0.24929100000000004
vt 0.010227 0.010226999999999986
vt 0.539352 0.16249000000000002
vt 0.621512 0.20992500000000003
vt 0.621512 0.21988300000000005
vt 0.530728 0.16746899999999998
vt 0.539352 0.06762000000000001
vt 0.539352 0.16249000000000002
vt 0.530728 0.16746899999999998
vt 0.530728 0.06264099999999995
vt 0.621512 0.02018500000000001
vt 0.539352 0.06762000000000001
vt 0.530728 0.06264099999999995
vt 0.621512 0.010226999999999986
vt 0.703671 0.06762000000000001
vt 0.621512 0.02018500000000001
vt 0.621512 0.010226999999999986
vt 0.712296 0.06264099999999995
vt 0.703671 0.16249000000000002
vt 0.703671 0.06762000000000001
vt 0.712296 0.06264099999999995
vt 0.712296 0.16746899999999998
vt 0.621512 0.20992500000000003
vt 0.703671 0.16249000000000002
vt 0.712296 0.16746899999999998
vt 0.621512 0.21988300000000005
vt 0.202917 0.351904
vt 0.202917 0.434064
vt 0.201404 0.434064
vt 0.201404 0.351904
vt 0.202917 0.269745
vt 0.202917 0.351904
vt 0.201404 0.351904
vt 0.201404 0.269745
vt 0.390081 0.831628
vt 0.390081 0.736758
vt 0.391594 0.736758
vt 0.391594 0.831628
vt 0.22337 0.351904
vt 0.22337 0.269745
vt 0.224883 0.269745
vt 0.224883 0.351904
vt 0.22337 0.434064
vt 0.22337 0.351904
vt 0.224883 0.351904
vt 0.224883 0.434064
vt 0.412047 0.831628
vt 0.412047 0.736758
vt 0.41356 0.736758
vt 0.413561 0.831628
vt 0.731255 0.40796
vt 0.801091 0.44828
vt 0.801091 0.46251
vt 0.718931 0.4150750000000001
vt 0.731255 0.327321
vt 0.731255 0.40796
vt 0.718931 0.4150750000000001
vt 0.718931 0.320206
vt 0.801091 0.28700100000000006
vt 0.731255 0.327321
vt 0.718931 0.320206
vt 0.801091 0.272771
vt 0.870926 0.327321
vt 0.801091 0.28700100000000006
vt 0.801091 0.272771
vt 0.88325 0.320206
vt 0.870926 0.40796
vt 0.870926 0.327321
vt 0.88325 0.320206
vt 0.88325 0.4150750000000001
vt 0.801091 0.44828
vt 0.870926 0.40796
vt 0.88325 0.4150750000000001
vt 0.801091 0.46251
vt 0.736939 0.12876599999999994
vt 0.802585 0.166667
vt 0.802585 0.17150500000000002
vt 0.732749 0.13118600000000002
vt 0.736939 0.05296599999999996
vt 0.736939 0.12876599999999994
vt 0.732749 0.13118600000000002
vt 0.732749 0.05054599999999998
vt 0.802585 0.015064999999999995
vt 0.736939 0.05296599999999996
vt 0.732749 0.05054599999999998
vt 0.802585 0.010226999999999986
vt 0.86823 0.05296599999999996
vt 0.802585 0.015064999999999995
vt 0.802585 0.010226999999999986
vt 0.87242 0.05054599999999998
vt 0.86823 0.12876599999999994
vt 0.86823 0.05296599999999996
vt 0.87242 0.05054599999999998
vt 0.87242 0.13118600000000002
vt 0.802585 0.166667
vt 0.86823 0.12876599999999994
vt 0.87242 0.13118600000000002
vt 0.802585 0.17150500000000002
vt 0.083687 0.835378
vt 0.083687 0.769732
vt 0.0852 0.769732
vt 0.0852 0.835378
vt 0.24685 0.33958
vt 0.24685 0.409416
vt 0.245337 0.409416
vt 0.245337 0.33958
vt 0.457494 0.736758
vt 0.457494 0.812559
vt 0.455981 0.812559
vt 0.455981 0.736758
vt 0.24685 0.42986900000000006
vt 0.24685 0.510509
vt 0.245337 0.510509
vt 0.245337 0.42986900000000006
vt 0.203917 0.76999
vt 0.203917 0.835635
vt 0.202404 0.835635
vt 0.202404 0.76999
vt 0.06172 0.843758
vt 0.06172 0.773922
vt 0.063233 0.773922
vt 0.063233 0.843758
vt 0.203917 0.704344
vt 0.203917 0.76999
vt 0.202404 0.76999
vt 0.202404 0.704344
vt 0.06172 0.773922
vt 0.06172 0.704087
vt 0.063233 0.704087
vt 0.063233 0.773922
vt 0.894387 0.010226999999999986
vt 0.894387 0.086028
vt 0.892874 0.086028
vt 0.892874 0.010226999999999986
vt 0.435527 0.736758
vt 0.435527 0.817397
vt 0.434014 0.817397
vt 0.434014 0.736758
vt 0.083687 0.769732
vt 0.083687 0.704087
vt 0.0852 0.704087
vt 0.0852 0.769732
vt 0.24685 0.269745
vt 0.24685 0.33958
vt 0.245337 0.33958
vt 0.245337 0.269745
vt 0.487681 0.252317
vt 0.428671 0.252317
vt 0.428671 0.010226999999999986
vt 0.487681 0.010226999999999986
vt 0.269745 0.010226999999999986
vt 0.328754 0.010226999999999986
vt 0.328754 0.252317
vt 0.269745 0.252317
vt 0.010227 0.269745
vt 0.069236 0.269745
vt 0.069236 0.511835
vt 0.010227 0.511835
vt 0.349208 0.010226999999999986
vt 0.408218 0.010226999999999986
vt 0.408218 0.252317
vt 0.349208 0.252317
vn 0.8660247547303052 0 0.500001124193051
vn 0 1 0
vn 0.8660247547303052 0 -0.500001124193051
vn 0 1 0
vn 0 0 -1
vn 0 1 0
vn -0.8660247547303052 0 -0.500001124193051
vn 0 1 0
vn -0.8660247547303052 0 0.500001124193051
vn 0 1 0
vn 0 0 1
vn 0 1 0
vn 0.7071067811865491 0.707106781186546 0
vn -0.7071067811865491 0.707106781186546 0
vn 0 0.707106781186546 0.7071067811865491
vn 0 0.707106781186546 -0.7071067811865491
vn 0 1 0
vn 0 1 0
vn 0 1 0
vn 0 1 0
vn 0 1 0
vn 0 1 0
vn 0 1 0
vn 0 1 0
vn 0 1 0
vn 0 1 0
vn 0 1 0
vn 0 1 0
vn 0 1 0
vn 0 1 0
vn 0.866025677382439 0 0.49999952611406356
vn 0.866025677382439 0 -0.49999952611406356
vn 0 0 -1
vn -0.866025677382439 0 -0.49999952611406356
vn -0.866025677382439 0 0.49999952611406356
vn 0 0 1
vn 0 1 0
vn 0 1 0
vn 0 1 0
vn 0 1 0
vn 0 1 0
vn 0 1 0
vn 0 1 0
vn 0 1 0
vn 0 1 0
vn 0 1 0
vn 0 1 0
vn 0 1 0
vn 0.8660266157163465 0 0.49999790086648505
vn -0.866026255005723 0 -0.499998525638589
vn 0 0 1
vn 0 0 -1
vn -0.8660266157163465 0 0.49999790086648505
vn 0.866026255005723 0 -0.499998525638589
vn -0.8660266157163465 0 -0.49999790086648505
vn 0.866026255005723 0 0.499998525638589
vn 0 0 -1
vn 0 0 1
vn 0.8660266157163465 0 -0.49999790086648505
vn -0.866026255005723 0 0.499998525638589
vn 1 0 0
vn 0 0 1
vn -1 0 0
vn 0 0 -1
usemtl m_1b988061-b477-65e6-02b6-65b529cd9684
f 1/1/1 2/2/1 3/3/1 4/4/1
f 5/5/2 6/6/2 7/7/2
f 2/8/3 8/9/3 9/10/3 3/11/3
f 6/12/4 10/13/4 7/14/4
f 8/15/5 11/16/5 12/17/5 9/18/5
f 10/19/6 13/20/6 7/21/6
f 11/22/7 14/23/7 15/24/7 12/25/7
f 13/26/8 16/27/8 7/28/8
f 14/29/9 17/30/9 18/31/9 15/32/9
f 16/33/10 19/34/10 7/35/10
f 17/36/11 1/37/11 4/38/11 18/39/11
f 19/40/12 5/41/12 7/42/12
f 20/43/13 21/44/13 22/45/13 23/46/13
f 24/47/14 25/48/14 26/49/14 27/50/14
f 27/51/15 26/52/15 21/53/15 20/54/15
f 23/55/16 22/56/16 25/57/16 24/58/16
f 11/59/17 8/60/17 23/61/17 24/62/17
f 20/63/18 1/64/18 17/65/18 27/66/18
f 2/67/19 1/68/19 20/69/19
f 8/70/20 2/71/20 23/72/20
f 2/73/21 20/74/21 23/75/21
f 14/76/22 11/77/22 24/78/22
f 17/79/23 14/80/23 27/81/23
f 14/82/24 24/83/24 27/84/24
f 28/85/25 29/86/25 12/87/25 15/88/25
f 30/89/26 28/90/26 15/91/26 18/92/26
f 31/93/27 30/94/27 18/95/27 4/96/27
f 32/97/28 31/98/28 4/99/28 3/100/28
f 33/101/29 32/102/29 3/103/29 9/104/29
f 29/105/30 33/106/30 9/107/30 12/108/30
f 34/109/31 35/110/31 29/111/31 28/112/31
f 36/113/32 34/114/32 28/115/32 30/116/32
f 37/117/33 36/118/33 30/119/33 31/120/33
f 38/121/34 37/122/34 31/123/34 32/124/34
f 39/125/35 38/126/35 32/127/35 33/128/35
f 35/129/36 39/130/36 33/131/36 29/132/36
f 40/133/37 41/134/37 35/135/37 34/136/37
f 42/137/38 40/138/38 34/139/38 36/140/38
f 43/141/39 42/142/39 36/143/39 37/144/39
f 44/145/40 43/146/40 37/147/40 38/148/40
f 45/149/41 44/150/41 38/151/41 39/152/41
f 41/153/42 45/154/42 39/155/42 35/156/42
f 46/157/43 47/158/43 48/159/43 49/160/43
f 50/161/44 46/162/44 49/163/44 51/164/44
f 52/165/45 50/166/45 51/167/45 53/168/45
f 54/169/46 52/170/46 53/171/46 55/172/46
f 56/173/47 54/174/47 55/175/47 57/176/47
f 47/177/48 56/178/48 57/179/48 48/180/48
f 47/181/49 46/182/49 16/183/49 13/184/49
f 49/185/50 48/186/50 41/187/50 40/188/50
f 56/189/51 47/190/51 13/191/51 10/192/51
f 48/193/52 57/194/52 45/195/52 41/196/52
f 54/197/53 56/198/53 10/199/53 6/200/53
f 57/201/54 55/202/54 44/203/54 45/204/54
f 52/205/55 54/206/55 6/207/55 5/208/55
f 55/209/56 53/210/56 43/211/56 44/212/56
f 50/213/57 52/214/57 5/215/57 19/216/57
f 53/217/58 51/218/58 42/219/58 43/220/58
f 46/221/59 50/222/59 19/223/59 16/224/59
f 51/225/60 49/226/60 40/227/60 42/228/60
f 58/229/61 22/230/61 21/231/61 59/232/61
f 59/233/62 21/234/62 26/235/62 60/236/62
f 60/237/63 26/238/63 25/239/63 61/240/63
f 61/241/64 25/242/64 22/243/64 58/244/64